<svg width="144" height="115" viewBox="0 0 144 115" fill="none" xmlns="http://www.w3.org/2000/svg">
<g clip-path="url(#clip0_9_741)">
<path d="M76.8866 43.4128L73.1713 49.8352C72.7961 50.4838 72.1006 50.8858 71.3503 50.8858H45.9563C45.2059 50.8858 44.5104 51.2877 44.1352 51.9364L41.518 56.4585C41.1428 57.1072 41.1428 57.902 41.518 58.5506L44.1352 63.0728C44.5104 63.7214 45.2059 64.1234 45.9563 64.1234H71.3594C72.1098 64.1234 72.7961 64.5253 73.1713 65.1648L86.6507 88.406C87.0259 89.0547 87.7214 89.4475 88.4626 89.4475H93.697C94.4474 89.4475 95.1428 89.0455 95.518 88.3969L98.1352 83.8747C98.5104 83.2261 98.5104 82.4221 98.1352 81.7826L84.6558 58.5506C84.2806 57.902 84.2806 57.1072 84.6558 56.4585L88.5999 49.6342C89.4052 48.2364 91.4275 48.2364 92.2328 49.6342L95.7377 55.6911C96.5429 57.0889 98.5653 57.0889 99.3706 55.6911L102.427 50.4107C102.802 49.7621 102.802 48.9673 102.427 48.3186L97.7783 40.2792L96.5063 38.0775C96.1311 37.4289 96.1311 36.6341 96.5063 35.9855L97.6777 33.9573C98.4829 32.5596 97.4763 30.8147 95.8566 30.8147H84.1799H81.3523H57.5689C56.8185 30.8147 56.123 31.2166 55.7478 31.8653L52.6914 37.1457C51.8861 38.5435 52.8927 40.2884 54.5124 40.2884H75.0656C76.6853 40.2701 77.6919 42.015 76.8866 43.4128Z" fill="#261E92"/>
<path d="M119.896 17.7232C113.564 6.76041 101.85 0 89.1763 0H66.491H46.6059C44.4645 0 42.4788 1.14196 41.4081 2.9965L21.5596 37.3101L11.9236 53.9645C10.6608 56.1479 10.6608 58.8429 11.9236 61.0264L16.1331 68.3075C16.9383 69.7053 18.3934 70.6188 20.0039 70.7376L32.3578 71.6694C33.2454 71.7334 33.3644 72.985 32.5133 73.2225L20.8733 76.5022L20.9007 76.5479L1.22609 81.9106C-0.649862 82.4221 -0.274672 85.1811 1.66534 85.1811H17.2312H25.8972H42.0121H46.3679C47.6491 85.1811 48.4544 83.7925 47.8138 82.6871L43.1651 74.6477L37.0614 64.1234L34.2612 59.2815C33.6206 58.1852 33.6206 56.824 34.2612 55.7277L37.0614 50.8858L53.0756 23.1864C54.1463 21.3318 56.132 20.1899 58.2734 20.1899H118.432C119.704 20.1899 120.528 18.8195 119.896 17.7232Z" fill="#009944"/>
<path d="M121.745 40.6629C120.802 40.5807 120.702 39.2469 121.617 39.0185L142.893 33.7016C144.576 33.2813 144.275 30.8055 142.536 30.8055H108.256C106.408 30.8055 105.264 32.7971 106.179 34.3959L118.853 56.3124C119.283 57.0524 119.283 57.9659 118.853 58.7059L101.796 88.2051L99.3523 92.4349C98.5013 93.9149 96.9181 94.8193 95.2069 94.8193H90.3111H54.8144H35.6065C33.758 94.8193 32.6141 96.8109 33.5292 98.4096L40.7219 110.843C42.2135 113.42 44.968 115.009 47.9512 115.009H66.4819H86.2938H88.7554C101.686 115.009 113.628 108.121 120.088 96.9479L121.324 94.8193L132.461 75.5704C138.226 65.6034 138.848 53.5625 134.318 43.1479C133.934 42.2708 133.11 41.6587 132.149 41.5765L121.745 40.6629Z" fill="#009944"/>
</g>
<defs>
<clipPath id="clip0_9_741">
<rect width="144" height="115" fill="white"/>
</clipPath>
</defs>
</svg>
